<svg width="415" height="442" viewBox="0 0 415 442" fill="none" xmlns="http://www.w3.org/2000/svg">
<path d="M137 192.5L175 155M137 192.5L175 230.5M137 192.5H100C83 192.5 50.5 210.3 50.5 243.5C50.5 276.7 50.5 329 50.5 351M175 155V117M175 155L213.5 192.5M175 117L152.5 94.5H112V13H238V94.5H199.5L175 117ZM213.5 192.5H302.5M213.5 192.5L175 230.5M302.5 192.5V143.5H402.5V239H302.5V192.5ZM175 230.5C174 261 177.5 276 201 296M201 296H277.5C293.5 295.167 325.9 305.1 327.5 351.5M201 296V351M327.5 351.5C338 350.833 363.5 359.5 365 389.5C366.3 415.5 343 429 327.5 429C310.5 429 287 421 287 389.5C287 358.783 316.667 351.5 327.5 351.5ZM201 351C213.5 351 239.61 360.139 240.5 389.5C241.5 422.5 212 429.5 199.5 429.5C187 429.5 162 419 162 388.5C162 358 188.667 350.5 201 351ZM50.5 351C69 350 89.4 363.9 91 389.5C92.6 415.1 72.5 427.5 53 429C37.5 431 11.9 413.9 13.5 389.5C15.1 365.1 33 350.533 50.5 351Z" stroke="black" stroke-width="25" stroke-linejoin="round"/>
</svg>
